<svg xmlns="http://www.w3.org/2000/svg" viewBox="0 0 80 80">
  <path fill="#009CDE" d="M40,0c-22,0-40,18-40,40s18,40,40,40s40-18,40-40S62,0,40,0z M40,10.3c5.5,0,10,4.5,10,10s-4.5,10-10,10s-10-4.5-10-10
  S34.5,10.3,40,10.3z M18.5,45.4c-3.4,0-6.2-2.8-6.2-6.2c0-3.4,2.8-6.2,6.2-6.2c3.4,0,6.2,2.8,6.2,6.2C24.7,42.6,22,45.4,18.5,45.4z
   M29.9,22.7c0-3.7,3-6.7,6.7-6.7s6.7,3,6.7,6.7s-3,6.7-6.7,6.7S29.9,26.4,29.9,22.7z M40,70c-11.8,0-21.9-7-26.5-17.1
  c1.9-1.4,4.3-2.5,7.6-3c6.5-1,11.9-1.6,11.9-1.6v-0.1c0,0-0.1,0-0.4-0.1c-0.5-0.1-1.4-0.3-2.2-0.5c-0.4-0.1-0.8-0.3-1.1-0.4
  c-0.3-0.1-0.4-0.2-0.4-0.2c3.8-3,6.4-7.2,6.9-12.1c0,0,0,0,0,0c0.1,0.1,0.2,0.2,0.3,0.4c1.2,2.1,3.9,4.4,8.2,6.3c1,0.4,2,0.9,2.4,1.2
  c0.4,0.2,0.5,0.2,0.5,0.2c0.1,0.1,0.2,0.1,0.3,0.2c0.4,0.2,0.9,0.5,1.3,0.7c0.9,0.5,1.6,0.9,2,1.1c0.2,0.1,0.3,0.1,0.3,0.1
  c-0.4,0-1.5-0.3-2.5-0.6c-0.5-0.1-1-0.3-1.3-0.3c-0.2-0.1-0.3-0.1-0.3-0.1c-0.9-0.1-1.7-0.2-2.6-0.4c-1.4-0.2-2.7-0.4-3.9-0.5
  c-0.4-0.1-0.7-0.1-1-0.2c-0.2,0-0.3,0-0.4-0.1c-0.1,0-0.1,0-0.1,0c0,0,0.1,0,0.2,0.1c1.7,0.4,5.3,1.2,8.4,2.3c1.6,0.5,3,1.1,4,1.6
  c1,0.5,1.5,0.9,1.5,0.9v0.1c1.7,0.6,3.4,1.6,5.2,2.9C58.7,62.3,50.1,70,40,70z M61.5,45.4c-3.4,0-6.2-2.8-6.2-6.2
  c0-3.4,2.8-6.2,6.2-6.2c3.4,0,6.2,2.8,6.2,6.2C67.7,42.6,65,45.4,61.5,45.4z M60.3,31.5c0-4.9-4-8.9-8.9-8.9s-8.9,4-8.9,8.9s4,8.9,8.9,8.9
  S60.3,36.5,60.3,31.5z"/>
</svg>